# xmcd CD database file
#
# Track frame offsets:
#	150
#	11927
#	22581
#	36875
#	50561
#	63138
#	77618
#	91166
#	105349
#	119410
#	134039
#	148664
#	161505
#	174978
#	186004
#	198755
#	211283
#	224276
#	238471
#	252498
#	264915
#	278888
#	290863
#	302467
#
# Disc length: 4207 seconds
#
# Revision: 2
# Processed by: cddbd v1.5.1PL0 Copyright (c) Steve Scherf et al.
# Submitted via: CDex 1.40Release
#
DISCID=58106d18
DTITLE=Ernest Tubb - Walking The Floor Over You
DYEAR=2001
DGENRE=Country
TTITLE0=Walking The Floor Over You
TTITLE1=Try Me One More Time
TTITLE2=Soldier's Last Letter
TTITLE3=Tomorrow Never Comes
TTITLE4=Careless Darlin'
TTITLE5=It's Been So Long, Darling
TTITLE6=Filipino Baby
TTITLE7=Rainbow At Midnight
TTITLE8=Don't Look Now (But Your Broken Heart Is Showing)
TTITLE9=Seaman's Blues
TTITLE10=Forever Is Ending Today
TTITLE11=Have You Ever Been Lonely (Have You Ever Been Blue)
TTITLE12=Let's Say Goodbye Like We Said Hello
TTITLE13=Till The End Of The World
TTITLE14=I'm Biting My Fingernails And Thinking Of You
TTITLE15=Don't Rob Another Man's Castle
TTITLE16=Slipping Around
TTITLE17=My Filipino Rose
TTITLE18=Warm Red Wine
TTITLE19=Blue Christmas
TTITLE20=Letters Have No Arms
TTITLE21=I Love You Because
TTITLE22=Throw Your Love My Way
TTITLE23=(Remember Me) I'm The One Who Loves You
EXTD=YEAR: 2001 ID3G: 2
EXTT0=
EXTT1=
EXTT2=
EXTT3=
EXTT4=
EXTT5=
EXTT6=
EXTT7=
EXTT8=
EXTT9=
EXTT10=
EXTT11=
EXTT12=
EXTT13=
EXTT14=
EXTT15=
EXTT16=
EXTT17=
EXTT18=
EXTT19=
EXTT20=
EXTT21=
EXTT22=
EXTT23=
PLAYORDER=
